<svg version="1.1" xmlns="http://www.w3.org/2000/svg" viewBox="0 0 444 454" width="444" height="454">
  <!-- svg-source:excalidraw -->
  
  <defs>
    <style class="style-fonts">
      @font-face {
        font-family: "Virgil";
        src: url("https://excalidraw.com/Virgil.woff2");
      }
      @font-face {
        font-family: "Cascadia";
        src: url("https://excalidraw.com/Cascadia.woff2");
      }
    </style>
  </defs>
  <rect x="0" y="0" width="444" height="454" fill="#ffffff"></rect><g stroke-linecap="round" transform="translate(10 10) rotate(0 212 217)"><path d="M32 0 M32 0 C175.14 -1.34, 316.32 -0.88, 392 0 M32 0 C170.27 -1.76, 307.6 -1.99, 392 0 M392 0 C412.59 0.29, 422.19 10.01, 424 32 M392 0 C414.25 0.81, 423.48 11.25, 424 32 M424 32 C422.5 123.22, 422.12 215.97, 424 402 M424 32 C424.4 135.93, 423.77 239.74, 424 402 M424 402 C425.3 422.06, 413.06 433.73, 392 434 M424 402 C421.79 424.14, 411.11 435.84, 392 434 M392 434 C268.68 433.43, 148 432.43, 32 434 M392 434 C257.28 431.41, 122.81 431.69, 32 434 M32 434 C12.48 435.71, -1.14 422.96, 0 402 M32 434 C8.62 434.06, 1.55 422.54, 0 402 M0 402 C1.72 320.95, 1.11 239.75, 0 32 M0 402 C-0.96 283.21, -1.05 163.94, 0 32 M0 32 C0.76 8.69, 10.15 -1.77, 32 0 M0 32 C2.23 11.24, 12.62 0.14, 32 0" stroke="#000000" stroke-width="1" fill="none"></path></g><g stroke-linecap="round" transform="translate(20 17) rotate(0 203.5 36.5)"><path d="M4.86 4.22 C4.86 4.22, 4.86 4.22, 4.86 4.22 M4.86 4.22 C4.86 4.22, 4.86 4.22, 4.86 4.22 M3.28 12.13 C5.83 8.33, 7.86 5.74, 11.81 2.32 M3.28 12.13 C6.52 8.85, 8.51 5.66, 11.81 2.32 M1.71 20.04 C6.98 14.85, 12.53 7.2, 18.77 0.41 M1.71 20.04 C5.85 16.43, 8.94 11.29, 18.77 0.41 M2.11 25.68 C7.66 17.47, 13.48 9.82, 23.76 0.77 M2.11 25.68 C6.11 19.78, 11.68 15.86, 23.76 0.77 M1.84 32.08 C9.91 24.42, 14.35 18.49, 29.4 0.38 M1.84 32.08 C11.57 21.88, 19.99 11.31, 29.4 0.38 M2.24 37.72 C12.86 27.84, 24.4 16.01, 34.39 0.74 M2.24 37.72 C9.34 28.44, 18.19 21.23, 34.39 0.74 M2.63 43.36 C14.63 28.47, 27.61 14.53, 40.03 0.35 M2.63 43.36 C17.82 26.5, 31.28 9.76, 40.03 0.35 M2.37 49.76 C15.77 36.21, 28.33 19.53, 45.02 0.71 M2.37 49.76 C15.77 33.88, 29.54 16.22, 45.02 0.71 M2.77 55.41 C19.19 36.15, 34.06 17.48, 50.66 0.31 M2.77 55.41 C17.37 38.26, 30.74 22.38, 50.66 0.31 M1.19 63.31 C13.65 51.54, 24.48 35.7, 55.65 0.67 M1.19 63.31 C14.29 47.84, 27.91 33.03, 55.65 0.67 M4.21 65.94 C27.21 40.89, 50.11 15.2, 61.29 0.28 M4.21 65.94 C18.17 49.08, 34.65 31.99, 61.29 0.28 M6.57 69.32 C24.31 49.35, 43.42 29.2, 66.28 0.64 M6.57 69.32 C19.72 54.81, 32.99 38.24, 66.28 0.64 M9.59 71.94 C27.72 52.71, 43.25 33.03, 71.92 0.24 M9.59 71.94 C22.79 57.44, 35.23 42.03, 71.92 0.24 M13.92 73.05 C30.65 53.43, 47.65 38.37, 76.91 0.6 M13.92 73.05 C32.89 50.75, 52.55 30.12, 76.91 0.6 M19.57 72.66 C41.67 47.99, 62.99 23.32, 82.55 0.21 M19.57 72.66 C38.16 50.41, 58.98 28.35, 82.55 0.21 M24.55 73.02 C43.58 54.36, 62.83 32.96, 87.54 0.57 M24.55 73.02 C39.85 55.74, 56.54 37.37, 87.54 0.57 M30.2 72.63 C44.37 53.33, 61.54 38.71, 93.18 0.17 M30.2 72.63 C50.72 49.86, 71.04 26.56, 93.18 0.17 M35.18 72.99 C48.87 57.28, 62.88 39.15, 98.17 0.53 M35.18 72.99 C48.96 58.92, 61.89 43.18, 98.17 0.53 M40.83 72.59 C63.42 46.69, 85.5 22.02, 103.81 0.14 M40.83 72.59 C54.59 56.62, 69.52 41.71, 103.81 0.14 M45.81 72.95 C61.5 56.46, 77.31 38.91, 108.8 0.5 M45.81 72.95 C60.7 57.31, 73.16 40.09, 108.8 0.5 M51.46 72.56 C64.68 58.22, 76.08 40.73, 113.78 0.86 M51.46 72.56 C72.47 48.56, 93.4 22.31, 113.78 0.86 M56.44 72.92 C76.82 51.91, 95.88 25.79, 119.43 0.46 M56.44 72.92 C79.63 47.15, 101.61 23.25, 119.43 0.46 M62.09 72.52 C75.86 57.43, 89.02 39.7, 124.41 0.82 M62.09 72.52 C81.95 50.23, 100.64 30.47, 124.41 0.82 M67.07 72.88 C89.01 48.35, 109.38 24.56, 130.06 0.43 M67.07 72.88 C88.91 47.46, 110.81 21.72, 130.06 0.43 M72.06 73.24 C91.21 49.18, 112.23 26.59, 135.04 0.79 M72.06 73.24 C85.07 56.26, 100.31 40.57, 135.04 0.79 M77.7 72.85 C95.02 53.32, 107.8 38.13, 140.69 0.4 M77.7 72.85 C102.45 45.28, 124.89 18.98, 140.69 0.4 M82.69 73.21 C95.45 56.93, 112.46 41.39, 145.67 0.76 M82.69 73.21 C102.44 50.37, 121.48 28.17, 145.67 0.76 M88.33 72.81 C104.9 53.07, 125.67 33.67, 151.32 0.36 M88.33 72.81 C106.76 52.42, 124.25 30.4, 151.32 0.36 M93.32 73.17 C111.52 50.29, 132.58 30.01, 156.3 0.72 M93.32 73.17 C111.93 50.23, 131.38 30.12, 156.3 0.72 M98.96 72.78 C120.86 49.83, 140.87 26.64, 161.95 0.33 M98.96 72.78 C121.67 46.96, 142.41 22.02, 161.95 0.33 M103.95 73.14 C122.8 51.55, 143.26 29.52, 166.93 0.69 M103.95 73.14 C117.06 58.31, 128.98 43.56, 166.93 0.69 M109.59 72.74 C135.04 45.36, 156.09 16.05, 172.58 0.29 M109.59 72.74 C129.88 51.25, 150.87 27.79, 172.58 0.29 M114.58 73.1 C132.75 55.31, 147.48 34.59, 177.56 0.65 M114.58 73.1 C136.19 47.43, 158.72 20.05, 177.56 0.65 M120.22 72.71 C137.79 54.92, 156.02 32.23, 183.21 0.26 M120.22 72.71 C143.06 48.13, 163.91 20.53, 183.21 0.26 M125.21 73.07 C145.31 48.99, 170.63 21.05, 188.19 0.62 M125.21 73.07 C150.42 45.45, 173.18 17.85, 188.19 0.62 M130.85 72.68 C153.15 47.22, 175.07 26.04, 193.84 0.22 M130.85 72.68 C150.71 49.5, 171.32 25.25, 193.84 0.22 M135.84 73.04 C151.9 55.32, 167.42 35.24, 198.82 0.58 M135.84 73.04 C149.32 58.61, 162.04 43.68, 198.82 0.58 M141.49 72.64 C163.03 48.3, 183.94 24.66, 203.81 0.94 M141.49 72.64 C161.07 50.46, 178.62 29.27, 203.81 0.94 M146.47 73 C160.18 56.82, 175.89 38.75, 209.45 0.55 M146.47 73 C161.15 55.94, 178.61 37.81, 209.45 0.55 M152.12 72.61 C172.89 45.88, 196.92 17.83, 214.44 0.91 M152.12 72.61 C167.09 55.21, 181.01 38.93, 214.44 0.91 M157.1 72.97 C181.02 47.88, 200.36 23.17, 220.08 0.51 M157.1 72.97 C173.13 53.34, 190.82 33.86, 220.08 0.51 M162.09 73.33 C185.01 46.4, 208.63 20.17, 225.07 0.87 M162.09 73.33 C182.09 49.8, 202.65 25.96, 225.07 0.87 M167.73 72.93 C190.58 47.11, 210.52 24.25, 230.71 0.48 M167.73 72.93 C184.75 53.23, 201.19 33.27, 230.71 0.48 M172.72 73.29 C195.59 50.4, 213.83 25.13, 235.7 0.84 M172.72 73.29 C185.79 56.99, 199.11 42.59, 235.7 0.84 M178.36 72.9 C203.45 48.03, 223.37 19.32, 241.34 0.45 M178.36 72.9 C190.6 58.68, 202.83 43.12, 241.34 0.45 M183.35 73.26 C203.81 48.11, 227.48 18.3, 246.33 0.81 M183.35 73.26 C207.4 45.32, 232.81 17.74, 246.33 0.81 M188.99 72.86 C212.08 47.37, 234.45 22.37, 251.97 0.41 M188.99 72.86 C206.09 51.54, 223.98 30.52, 251.97 0.41 M193.98 73.22 C206.08 56.5, 223.07 41.3, 256.96 0.77 M193.98 73.22 C207.74 56.77, 220.99 43.06, 256.96 0.77 M199.62 72.83 C217.84 53.76, 235.87 30.95, 262.6 0.38 M199.62 72.83 C217.98 52.51, 234.52 31.48, 262.6 0.38 M204.61 73.19 C224.43 49.57, 246.04 24.64, 267.59 0.74 M204.61 73.19 C222.77 52.85, 238.17 34.14, 267.59 0.74 M210.25 72.79 C233.84 44.58, 257.41 15.78, 273.23 0.34 M210.25 72.79 C222.41 58.35, 236.04 43.27, 273.23 0.34 M215.24 73.15 C231.9 57.27, 244.6 39.27, 278.22 0.7 M215.24 73.15 C229.82 56.59, 246.16 38.7, 278.22 0.7 M220.88 72.76 C238.54 50.05, 260 31.61, 283.86 0.31 M220.88 72.76 C235.23 57.2, 247.85 41.13, 283.86 0.31 M225.87 73.12 C239.77 54.61, 256.05 34.54, 288.85 0.67 M225.87 73.12 C250.11 45.25, 275.06 16.65, 288.85 0.67 M231.51 72.72 C246.95 53.43, 260.3 37.63, 294.49 0.27 M231.51 72.72 C252.79 46.97, 274.97 22.27, 294.49 0.27 M236.5 73.08 C257.32 50.53, 272.69 29.27, 299.48 0.63 M236.5 73.08 C257.14 50.66, 275.78 28.49, 299.48 0.63 M242.14 72.69 C264.01 47.35, 283.63 24.87, 304.47 0.99 M242.14 72.69 C264.84 47.45, 286.39 23.58, 304.47 0.99 M247.13 73.05 C263.88 52.78, 277.36 36.38, 310.11 0.6 M247.13 73.05 C271.5 45.62, 295.25 17.18, 310.11 0.6 M252.77 72.66 C266.85 53.32, 284.41 36.3, 315.1 0.96 M252.77 72.66 C268.14 55.12, 285.26 37.01, 315.1 0.96 M257.76 73.02 C279.18 49.06, 300.62 22.32, 320.74 0.56 M257.76 73.02 C276.05 51.48, 293.23 30.3, 320.74 0.56 M262.75 73.38 C282.64 46.8, 303.82 25.8, 325.73 0.92 M262.75 73.38 C276.35 57.92, 290.91 41.37, 325.73 0.92 M268.39 72.98 C282.08 56.11, 298.93 37.35, 331.37 0.53 M268.39 72.98 C288.66 50.34, 306.85 28.13, 331.37 0.53 M273.38 73.34 C291.65 49.06, 311.6 27.62, 336.36 0.89 M273.38 73.34 C290.95 52.85, 309.6 32.81, 336.36 0.89 M279.02 72.95 C299.6 49.62, 317.38 27.25, 342 0.49 M279.02 72.95 C294.1 56.36, 309.25 38.56, 342 0.49 M284.01 73.31 C309.63 45.03, 334.2 13.81, 346.99 0.85 M284.01 73.31 C298.08 58.87, 309.53 42.48, 346.99 0.85 M289.65 72.91 C308.45 50.35, 329.51 25.64, 352.63 0.46 M289.65 72.91 C305.9 54.63, 322.14 34.89, 352.63 0.46 M294.64 73.27 C314.07 48.32, 335.78 25.23, 357.62 0.82 M294.64 73.27 C309.23 56.1, 323.02 39.65, 357.62 0.82 M300.28 72.88 C314.6 57.45, 328.86 40.62, 363.26 0.43 M300.28 72.88 C317.26 54.6, 332.6 35.86, 363.26 0.43 M305.27 73.24 C328.92 43.89, 355.81 16.79, 368.25 0.79 M305.27 73.24 C325.31 50.33, 344.63 26.75, 368.25 0.79 M310.91 72.84 C335.24 47.95, 357.86 20.47, 373.89 0.39 M310.91 72.84 C333.02 48.69, 354.52 24.07, 373.89 0.39 M315.9 73.2 C339.41 45.98, 363.12 20.56, 378.88 0.75 M315.9 73.2 C335.92 49.08, 354.83 28.23, 378.88 0.75 M321.54 72.81 C344.98 44.75, 372.76 13.34, 384.52 0.36 M321.54 72.81 C338.6 52.58, 356.09 32.54, 384.52 0.36 M326.53 73.17 C349.71 46.44, 369.75 23.44, 389.51 0.72 M326.53 73.17 C350.98 45.33, 375 17.99, 389.51 0.72 M332.17 72.77 C345.29 59, 357.6 44.64, 394.5 1.08 M332.17 72.77 C349.98 53.69, 365.69 32.61, 394.5 1.08 M337.16 73.13 C351.2 55.38, 363.23 40.47, 398.17 2.95 M337.16 73.13 C361.59 47.34, 383.53 20.82, 398.17 2.95 M342.8 72.74 C356.51 58.62, 366.96 43.95, 401.85 4.82 M342.8 72.74 C355.57 56.99, 371.57 40.54, 401.85 4.82 M347.79 73.1 C366.33 52.65, 382.84 31.31, 404.86 7.44 M347.79 73.1 C361.7 56.94, 377.1 37.99, 404.86 7.44 M352.77 73.46 C366.31 55.48, 381.77 39.15, 407.23 10.82 M352.77 73.46 C366.2 58.32, 380.18 41.78, 407.23 10.82 M358.42 73.07 C373.39 52.63, 391.41 36.34, 407.62 16.46 M358.42 73.07 C372.76 56.07, 386.1 40.65, 407.62 16.46 M363.4 73.43 C376.17 58.65, 390.78 40.33, 409.33 20.6 M363.4 73.43 C378.45 55.98, 392.21 40.85, 409.33 20.6 M369.05 73.03 C382.06 61.25, 390.43 45.19, 409.72 26.24 M369.05 73.03 C378.68 61.58, 387.85 51.92, 409.72 26.24 M374.03 73.39 C384.41 59.89, 397.66 45.69, 409.46 32.64 M374.03 73.39 C381.49 64.47, 390.85 53.67, 409.46 32.64 M379.68 73 C389.56 61.21, 396.84 51.57, 409.2 39.03 M379.68 73 C389.13 60.46, 399.55 50.06, 409.2 39.03 M384.66 73.36 C390.86 65.67, 397.65 62.18, 409.6 44.68 M384.66 73.36 C392.97 64.37, 399.16 55.57, 409.6 44.68 M389.65 73.72 C393.08 68.1, 399.57 63.74, 409.33 51.08 M389.65 73.72 C397.76 65.24, 405.99 55.8, 409.33 51.08 M395.95 72.57 C400.43 67.11, 402.72 64.52, 407.1 59.74 M395.95 72.57 C399.36 68.66, 401.14 65.79, 407.1 59.74" stroke="#15aabf" stroke-width="0.5" fill="none"></path><path d="M18.25 0 M18.25 0 C114.29 -2.27, 208.6 -0.87, 388.75 0 M18.25 0 C109.51 0.76, 200.02 0.17, 388.75 0 M388.75 0 C402.06 -1.19, 408.43 4.71, 407 18.25 M388.75 0 C402.25 2.23, 405.74 4.89, 407 18.25 M407 18.25 C407.13 26.72, 406.66 33.19, 407 54.75 M407 18.25 C406.57 31.97, 406.07 45.66, 407 54.75 M407 54.75 C407.16 65.49, 398.95 71.82, 388.75 73 M407 54.75 C407.18 64.97, 401.12 73.65, 388.75 73 M388.75 73 C308.14 74.12, 226.19 73.57, 18.25 73 M388.75 73 C251.33 71.81, 113.78 71.85, 18.25 73 M18.25 73 C7.21 74.8, 0.95 68.42, 0 54.75 M18.25 73 C4.29 74.2, -1.28 68.9, 0 54.75 M0 54.75 C-0.26 38.59, -1.88 24.01, 0 18.25 M0 54.75 C-0.15 42.09, -0.35 28.21, 0 18.25 M0 18.25 C-1.69 7.39, 6.14 -0.97, 18.25 0 M0 18.25 C1.96 7.07, 4.6 0.35, 18.25 0" stroke="#000000" stroke-width="1" fill="none"></path></g><g stroke-linecap="round" transform="translate(19 99) rotate(0 202 138.5)"><path d="M7.86 8.16 C7.86 8.16, 7.86 8.16, 7.86 8.16 M7.86 8.16 C7.86 8.16, 7.86 8.16, 7.86 8.16 M3.66 19.09 C7.53 14.57, 14.6 7.57, 18.1 2.48 M3.66 19.09 C6.36 14.01, 10.88 11.27, 18.1 2.48 M2.75 26.24 C10.36 21.01, 14.41 13.54, 24.4 1.33 M2.75 26.24 C8.73 20.1, 13.84 13.62, 24.4 1.33 M2.48 32.64 C10 23.17, 17.52 14.33, 30.7 0.18 M2.48 32.64 C9.03 26.77, 14.76 20.45, 30.7 0.18 M2.88 38.28 C12.68 26.06, 23.23 13.62, 34.37 2.05 M2.88 38.28 C11.5 27.94, 21.25 17.44, 34.37 2.05 M2.62 44.68 C15.41 31.1, 25.46 17.47, 39.36 2.41 M2.62 44.68 C15.46 30.26, 28.74 14.69, 39.36 2.41 M2.36 51.07 C14.96 34.99, 30.35 18.93, 45 2.02 M2.36 51.07 C13.57 39.45, 24.45 27.2, 45 2.02 M2.75 56.72 C15.63 43.77, 30.01 27.94, 49.99 2.38 M2.75 56.72 C17.61 38.83, 33.53 21.06, 49.99 2.38 M2.49 63.11 C22.95 39.13, 40.89 17.63, 55.63 1.98 M2.49 63.11 C21.79 40.46, 41.78 17.58, 55.63 1.98 M2.23 69.51 C19.59 48.33, 35.08 29.12, 60.62 2.34 M2.23 69.51 C22.97 44.31, 45.48 20.94, 60.62 2.34 M2.62 75.16 C25.51 47.31, 47.67 22.9, 66.26 1.95 M2.62 75.16 C25.03 50.42, 45.85 24.4, 66.26 1.95 M2.36 81.55 C27.52 51.67, 55.9 20.73, 71.25 2.31 M2.36 81.55 C26.56 55.11, 50.24 27.19, 71.25 2.31 M2.76 87.2 C17.1 69.93, 34.58 53.7, 76.89 1.91 M2.76 87.2 C30.43 55.22, 56.17 25.57, 76.89 1.91 M2.49 93.59 C21.32 68.41, 43.51 43.62, 81.88 2.27 M2.49 93.59 C33.72 57.25, 65.38 22.23, 81.88 2.27 M2.23 99.99 C25.46 72.95, 52.18 45.13, 87.52 1.88 M2.23 99.99 C23.65 77.61, 44.99 53.11, 87.52 1.88 M2.63 105.64 C26.17 79.45, 46.88 55.97, 92.51 2.24 M2.63 105.64 C20.76 83.94, 39.66 64.48, 92.51 2.24 M2.37 112.03 C25.87 82.26, 52.41 54.63, 98.15 1.85 M2.37 112.03 C35.7 74.87, 69.44 35.71, 98.15 1.85 M2.1 118.43 C34.43 79.78, 70.41 40.3, 103.14 2.21 M2.1 118.43 C35.72 79.16, 70.33 39.03, 103.14 2.21 M2.5 124.07 C33.12 87.23, 63.92 51.29, 108.78 1.81 M2.5 124.07 C30.33 92.73, 55.68 62.35, 108.78 1.81 M2.24 130.47 C41.03 89.25, 75.92 44.51, 113.77 2.17 M2.24 130.47 C42.51 85.53, 83.58 38.17, 113.77 2.17 M2.63 136.11 C33.85 97.12, 67.73 60.47, 119.41 1.78 M2.63 136.11 C28.84 105.14, 55.19 74.48, 119.41 1.78 M2.37 142.51 C46.8 90.93, 93.56 36.83, 124.4 2.14 M2.37 142.51 C36.43 103.2, 69.44 65.39, 124.4 2.14 M2.11 148.91 C51.67 89.56, 101.64 34.24, 130.04 1.74 M2.11 148.91 C31.88 117.42, 58.92 84.12, 130.04 1.74 M2.5 154.55 C49.09 99.12, 97.37 40.91, 135.03 2.1 M2.5 154.55 C38.94 111.04, 77.21 68.11, 135.03 2.1 M2.24 160.95 C43.49 112.17, 85.76 63.86, 140.67 1.71 M2.24 160.95 C37.76 120.75, 72.22 80.5, 140.67 1.71 M2.64 166.59 C48.27 113.09, 96.17 58.7, 145.66 2.07 M2.64 166.59 C39.63 124.83, 75.47 83.76, 145.66 2.07 M2.38 172.99 C32.89 135.75, 64.16 103.66, 150.65 2.43 M2.38 172.99 C60.66 104.67, 120.78 37.37, 150.65 2.43 M2.11 179.39 C46.91 128.43, 88.23 79.39, 156.29 2.03 M2.11 179.39 C36.32 141.93, 69.28 105.13, 156.29 2.03 M2.51 185.03 C63.18 116.19, 122.39 50.7, 161.28 2.39 M2.51 185.03 C43.66 138.76, 81.54 94.7, 161.28 2.39 M2.25 191.43 C57.84 124.93, 117.03 59.68, 166.92 2 M2.25 191.43 C50.04 136.8, 97.89 82.18, 166.92 2 M1.99 197.83 C67.81 118.44, 134.35 42.03, 171.91 2.36 M1.99 197.83 C38.53 157.77, 73.19 117.96, 171.91 2.36 M2.38 203.47 C44.36 156.03, 86.53 109.35, 177.55 1.96 M2.38 203.47 C64.84 131.99, 127.12 59.78, 177.55 1.96 M2.12 209.87 C63.51 137.89, 128.57 63.75, 182.54 2.32 M2.12 209.87 C41.88 165.95, 80.16 121.38, 182.54 2.32 M2.51 215.51 C76.75 131.9, 146.94 51.2, 188.18 1.93 M2.51 215.51 C72.99 133.36, 142.64 51.43, 188.18 1.93 M2.25 221.91 C50.3 168.4, 96.01 115.67, 193.17 2.29 M2.25 221.91 C45.96 169.74, 90.8 119.23, 193.17 2.29 M1.99 228.31 C44.39 178.38, 86.67 128.05, 198.81 1.9 M1.99 228.31 C60.88 159.85, 120.01 91.93, 198.81 1.9 M2.39 233.95 C71.3 156.27, 138.12 78.34, 203.8 2.26 M2.39 233.95 C72.26 154.6, 140.69 75.73, 203.8 2.26 M2.12 240.35 C55.43 178.98, 110.57 114.93, 209.44 1.86 M2.12 240.35 C68.3 165.04, 133.38 91.42, 209.44 1.86 M1.86 246.75 C53.01 189.43, 104.91 127.67, 214.43 2.22 M1.86 246.75 C52.5 185.72, 105.05 127.19, 214.43 2.22 M2.91 251.63 C57.03 192.02, 109.59 131.38, 220.07 1.83 M2.91 251.63 C48.46 200.22, 91.16 150, 220.07 1.83 M3.31 257.28 C57.14 195.7, 110.44 134.01, 225.06 2.19 M3.31 257.28 C84.81 160.91, 168.47 65.92, 225.06 2.19 M5.01 261.41 C96.24 159.12, 183.56 56.29, 230.7 1.79 M5.01 261.41 C57.47 203.75, 106.78 146.06, 230.7 1.79 M6.07 266.3 C83.21 179.41, 161.18 88.44, 235.69 2.15 M6.07 266.3 C93.13 165.19, 180.44 65.27, 235.69 2.15 M9.08 268.92 C89.79 176.51, 169.91 85.64, 241.33 1.76 M9.08 268.92 C56.68 213.96, 103.4 160.19, 241.33 1.76 M12.1 271.55 C59.59 216.25, 109.95 159.09, 246.32 2.12 M12.1 271.55 C69.54 203.65, 126.89 137.71, 246.32 2.12 M15.12 274.17 C70.3 213.37, 122.52 152.84, 251.96 1.72 M15.12 274.17 C70.32 209.5, 128.34 144.33, 251.96 1.72 M18.8 276.04 C83.26 203.1, 148.21 128.6, 256.95 2.08 M18.8 276.04 C104.85 176.31, 191.63 75.98, 256.95 2.08 M23.13 277.16 C113.37 172.89, 203.81 70.16, 262.59 1.69 M23.13 277.16 C72.96 219.2, 122.56 161.55, 262.59 1.69 M26.8 279.03 C77.54 219.77, 126.98 163.38, 267.58 2.05 M26.8 279.03 C90.78 207.86, 153.46 134.53, 267.58 2.05 M33.1 277.88 C89.26 212.05, 144.49 146.86, 272.56 2.41 M33.1 277.88 C95.04 205.9, 158.3 133.85, 272.56 2.41 M38.09 278.24 C94.88 213.61, 151.94 149.69, 278.21 2.01 M38.09 278.24 C104.53 199.11, 173.33 120.45, 278.21 2.01 M43.73 277.84 C99.29 210.98, 156.84 146.47, 283.19 2.37 M43.73 277.84 C117.15 192.77, 191.96 106.28, 283.19 2.37 M48.72 278.2 C104.13 212.88, 158.94 150.78, 288.84 1.98 M48.72 278.2 C122.33 195.5, 193.96 112.15, 288.84 1.98 M54.36 277.81 C129.96 190.84, 206.4 103.39, 293.82 2.34 M54.36 277.81 C139.23 178.95, 224.63 80.68, 293.82 2.34 M59.35 278.17 C111.79 218.55, 164.88 156.38, 299.47 1.94 M59.35 278.17 C109.43 220.52, 158.5 162.78, 299.47 1.94 M64.99 277.77 C117.95 215.67, 172.07 153.94, 304.45 2.3 M64.99 277.77 C154.22 177.98, 241.26 77.17, 304.45 2.3 M69.98 278.13 C139.48 198.34, 209.95 117.93, 310.1 1.91 M69.98 278.13 C121.48 217.17, 173.01 156.99, 310.1 1.91 M75.62 277.74 C122.93 223.61, 171.42 167.27, 315.08 2.27 M75.62 277.74 C165.3 173.42, 256.78 68.51, 315.08 2.27 M80.61 278.1 C146.97 204.2, 210.92 131.6, 320.73 1.88 M80.61 278.1 C170.68 173.38, 261.14 69.74, 320.73 1.88 M86.25 277.7 C155.67 199.93, 226.25 121.18, 325.71 2.24 M86.25 277.7 C138.56 219.11, 188.25 161.65, 325.71 2.24 M91.24 278.06 C146.7 214.44, 203.32 149.84, 331.36 1.84 M91.24 278.06 C149.55 210.28, 207.12 143.61, 331.36 1.84 M96.88 277.67 C153.03 215.38, 208.6 150.54, 336.34 2.2 M96.88 277.67 C181.18 182.58, 264.76 87.06, 336.34 2.2 M101.87 278.03 C154.18 215.92, 209.67 153.87, 341.99 1.81 M101.87 278.03 C149.49 220.19, 198.98 162.74, 341.99 1.81 M107.51 277.64 C199.26 172.49, 290.07 68.17, 346.97 2.17 M107.51 277.64 C169.49 205.79, 230.91 136.51, 346.97 2.17 M112.5 278 C190.52 185.1, 271.18 94.64, 352.62 1.77 M112.5 278 C203.99 173.4, 295.1 68.44, 352.62 1.77 M118.14 277.6 C209.52 173.43, 301.57 65.79, 357.6 2.13 M118.14 277.6 C180.39 203.8, 243.21 130.79, 357.6 2.13 M123.13 277.96 C216.53 172.16, 307.17 67.36, 363.25 1.74 M123.13 277.96 C194.56 197.36, 264.39 116.25, 363.25 1.74 M128.77 277.57 C196.58 195.74, 265.89 116.76, 368.23 2.1 M128.77 277.57 C196.41 200.02, 265.1 121.89, 368.23 2.1 M133.76 277.93 C197.71 203.96, 262.17 131.49, 373.88 1.7 M133.76 277.93 C183.36 223.24, 232.31 165.93, 373.88 1.7 M138.75 278.29 C199.31 206.94, 262.34 137.72, 380.18 0.55 M138.75 278.29 C210.56 195.99, 283.35 113.05, 380.18 0.55 M144.39 277.89 C200.38 215.51, 253.92 152.15, 383.85 2.42 M144.39 277.89 C238.44 168.46, 334 58.85, 383.85 2.42 M149.38 278.25 C204.06 215.85, 256.25 155.67, 388.18 3.54 M149.38 278.25 C214.21 206.53, 276.4 133.88, 388.18 3.54 M155.02 277.86 C242.52 179.9, 328.73 81.03, 391.86 5.41 M155.02 277.86 C220.09 201.93, 284.94 126.45, 391.86 5.41 M160.01 278.22 C219.77 206.68, 282.76 134.09, 394.88 8.03 M160.01 278.22 C208.1 223.96, 255.12 168.97, 394.88 8.03 M165.65 277.82 C238.69 194.52, 311.35 110.73, 397.89 10.66 M165.65 277.82 C226.38 206.63, 288.8 135.61, 397.89 10.66 M170.64 278.18 C224.97 218.07, 277.12 157.63, 400.91 13.28 M170.64 278.18 C245.04 192.66, 318.52 106.83, 400.91 13.28 M176.28 277.79 C260.46 184.05, 340.96 90.55, 401.96 18.17 M176.28 277.79 C249.71 194.17, 323.18 109.48, 401.96 18.17 M181.27 278.15 C242.24 209.61, 301.35 138.55, 403.01 23.06 M181.27 278.15 C246.56 202.91, 312.83 127.12, 403.01 23.06 M186.91 277.75 C267.36 185.19, 347.74 92.11, 403.41 28.7 M186.91 277.75 C233.37 224.42, 280.53 170.12, 403.41 28.7 M191.9 278.11 C267.24 190.81, 343.39 103.78, 405.12 32.83 M191.9 278.11 C272.11 184.79, 352.17 92.57, 405.12 32.83 M197.54 277.72 C244.03 223.34, 294.25 165.98, 404.85 39.23 M197.54 277.72 C249.82 219.24, 302.55 158.75, 404.85 39.23 M202.53 278.08 C270.13 199.05, 340.43 120.34, 405.25 44.87 M202.53 278.08 C260.16 212.31, 316.99 146.76, 405.25 44.87 M208.17 277.69 C285.92 188.62, 365.85 98.69, 404.99 51.27 M208.17 277.69 C276.12 200.45, 342.89 123.43, 404.99 51.27 M213.16 278.05 C270.61 212.7, 325.11 148.36, 404.73 57.67 M213.16 278.05 C273.73 209.48, 332.01 142.54, 404.73 57.67 M218.8 277.65 C286.07 200.27, 354.26 120.33, 405.12 63.31 M218.8 277.65 C281.64 205.44, 345.04 133.42, 405.12 63.31 M223.79 278.01 C292.11 200.47, 362.38 122.32, 404.86 69.71 M223.79 278.01 C264.17 231.3, 306.32 185.49, 404.86 69.71 M229.43 277.62 C297.58 198.2, 364.76 120.14, 405.25 75.35 M229.43 277.62 C283.83 214.63, 336.9 153.28, 405.25 75.35 M234.42 277.98 C296.09 210.76, 356.32 139.62, 404.99 81.75 M234.42 277.98 C298.63 202.84, 363.88 128.28, 404.99 81.75 M240.06 277.58 C302.31 206.21, 363.94 134, 404.73 88.15 M240.06 277.58 C279.24 233, 316.87 189.2, 404.73 88.15 M245.05 277.94 C293.71 224.52, 341.17 168.62, 405.13 93.79 M245.05 277.94 C307.78 207.28, 368.81 137.05, 405.13 93.79 M250.69 277.55 C310.98 209.37, 366.58 141.42, 404.86 100.19 M250.69 277.55 C305.89 217.52, 358.38 155.83, 404.86 100.19 M255.68 277.91 C294 231.12, 334.84 185.35, 405.26 105.83 M255.68 277.91 C289.34 240.71, 322.43 200.45, 405.26 105.83 M260.66 278.27 C304.23 225.93, 347 176.05, 405 112.23 M260.66 278.27 C314.83 214.5, 369.69 152.03, 405 112.23 M266.31 277.87 C303.29 237.9, 336.29 198.68, 404.74 118.63 M266.31 277.87 C318.1 218.9, 368.81 159.61, 404.74 118.63 M271.29 278.23 C301.48 245.06, 329.54 210.69, 405.13 124.27 M271.29 278.23 C309.55 234.6, 349.45 188.55, 405.13 124.27 M276.94 277.84 C304.37 247.39, 330.76 212.21, 404.87 130.67 M276.94 277.84 C311.64 238.78, 343.61 200.24, 404.87 130.67 M281.92 278.2 C312.66 247.69, 341.33 214, 405.26 136.31 M281.92 278.2 C328.11 226.33, 372.27 174.68, 405.26 136.31 M287.57 277.8 C316.38 246.42, 343.17 218.36, 405 142.71 M287.57 277.8 C335.81 224.99, 381.92 171.36, 405 142.71 M292.55 278.16 C339.39 226.31, 380.22 174.52, 404.74 149.11 M292.55 278.16 C329.67 238.47, 365.49 196.9, 404.74 149.11 M298.2 277.77 C337.6 233.84, 374.62 188.37, 405.14 154.75 M298.2 277.77 C325.65 245.59, 354.1 212.97, 405.14 154.75 M303.18 278.13 C328.75 250.64, 352.15 223.28, 404.87 161.15 M303.18 278.13 C341.57 232.83, 380.97 188.08, 404.87 161.15 M308.83 277.74 C329.98 256.33, 347.91 235.01, 405.27 166.79 M308.83 277.74 C328.92 253.44, 350.77 228.5, 405.27 166.79 M313.82 278.1 C331.47 256.54, 350.64 233.68, 405.01 173.19 M313.82 278.1 C333.26 256.09, 352.97 235.27, 405.01 173.19 M319.46 277.7 C346 245.2, 377.03 215.51, 404.75 179.59 M319.46 277.7 C337.41 257.46, 354.34 237.49, 404.75 179.59 M324.45 278.06 C345.2 256.68, 361.47 236.16, 405.14 185.23 M324.45 278.06 C355.48 242.72, 387.68 207.18, 405.14 185.23 M330.09 277.67 C343.22 261.78, 359.55 242.59, 404.88 191.63 M330.09 277.67 C345.7 259.22, 362.33 240.43, 404.88 191.63 M335.08 278.03 C361.7 247.48, 387.67 215.65, 405.27 197.27 M335.08 278.03 C356.26 252.94, 377.2 229.78, 405.27 197.27 M340.72 277.63 C361.6 251.74, 382.41 229.44, 405.01 203.67 M340.72 277.63 C355.79 261.93, 368.95 246.58, 405.01 203.67 M345.71 277.99 C366.76 253.18, 391.36 227.48, 404.75 210.07 M345.71 277.99 C362.58 258.31, 380.08 238.83, 404.75 210.07 M351.35 277.6 C367.41 258.26, 383.37 240.49, 405.15 215.71 M351.35 277.6 C366.43 261.89, 379.68 244.95, 405.15 215.71 M356.34 277.96 C370.63 261.58, 385.95 247.11, 404.88 222.11 M356.34 277.96 C370.17 261.66, 385.44 244.32, 404.88 222.11 M361.98 277.56 C374.74 263.23, 384.6 251.83, 405.28 227.75 M361.98 277.56 C379.83 257.3, 397.73 238.74, 405.28 227.75 M366.97 277.92 C375.34 270.06, 383.77 256.85, 405.02 234.15 M366.97 277.92 C374.14 267.71, 383.97 258.12, 405.02 234.15 M372.61 277.53 C383.17 266.05, 395.5 252.93, 404.76 240.55 M372.61 277.53 C383.01 267.48, 392.65 256.47, 404.76 240.55 M378.91 276.38 C387.38 266.73, 395.94 260.32, 405.15 246.19 M378.91 276.38 C386.36 266.46, 395.35 256.64, 405.15 246.19 M384.55 275.98 C390.52 271.29, 392.59 267.42, 404.23 253.34 M384.55 275.98 C388.71 271.16, 394.87 265.07, 404.23 253.34" stroke="#fab005" stroke-width="0.5" fill="none"></path><path d="M32 0 M32 0 C163.33 -0.97, 293.07 -0.43, 372 0 M32 0 C111.81 1.46, 191.84 2.24, 372 0 M372 0 C392.18 -1.16, 404.23 9.93, 404 32 M372 0 C392.44 1.54, 403.33 12.58, 404 32 M404 32 C404.15 87.54, 406.41 145.94, 404 245 M404 32 C402.69 115.95, 402.07 198.65, 404 245 M404 245 C402.92 267.2, 394.01 276.63, 372 277 M404 245 C402.05 265.79, 392.15 275.54, 372 277 M372 277 C272.2 277.63, 169.35 278.82, 32 277 M372 277 C243.04 275.68, 114.77 274.92, 32 277 M32 277 C9.85 277.65, -1.26 267.34, 0 245 M32 277 C9.99 274.82, -1.97 266.59, 0 245 M0 245 C-2.27 182.48, -1.63 120.13, 0 32 M0 245 C-0.97 162.85, -1.79 79.38, 0 32 M0 32 C-1.34 11.43, 12.39 0.09, 32 0 M0 32 C-1.32 10.72, 12.42 1.86, 32 0" stroke="#000000" stroke-width="1" fill="none"></path></g><g stroke-linecap="round" transform="translate(24 382) rotate(0 197 27)"><path d="M3.59 3.12 C3.59 3.12, 3.59 3.12, 3.59 3.12 M3.59 3.12 C3.59 3.12, 3.59 3.12, 3.59 3.12 M3.33 9.52 C5.49 8, 7.39 4.9, 9.24 2.73 M3.33 9.52 C4.91 7.91, 5.49 6.62, 9.24 2.73 M3.07 15.92 C7.86 10.73, 12.02 4.5, 15.54 1.58 M3.07 15.92 C7.18 11.91, 10.02 7.09, 15.54 1.58 M2.81 22.32 C5.87 18.41, 13.72 12.26, 20.52 1.94 M2.81 22.32 C9.32 14.9, 17.91 6.55, 20.52 1.94 M3.2 27.96 C10.61 19.89, 17.88 12.19, 26.17 1.55 M3.2 27.96 C10.43 20.36, 18.08 11.09, 26.17 1.55 M3.6 33.6 C11.72 27.97, 17.25 18.77, 31.15 1.91 M3.6 33.6 C12.8 24.37, 21.14 13.54, 31.15 1.91 M3.34 40 C14.16 27.13, 29.68 10.96, 36.8 1.51 M3.34 40 C11.4 31.52, 18.81 21.38, 36.8 1.51 M2.42 47.15 C15.81 31.82, 26.6 18, 41.78 1.87 M2.42 47.15 C13.33 35.85, 22.58 24.25, 41.78 1.87 M4.78 50.53 C22.16 30.35, 40.91 9.78, 47.43 1.48 M4.78 50.53 C13.51 41.08, 23.4 29.03, 47.43 1.48 M7.14 53.91 C20.72 39.91, 33.31 24.73, 52.41 1.84 M7.14 53.91 C20.1 38.46, 31.45 23.54, 52.41 1.84 M11.48 55.03 C24.52 39.34, 34.32 26.86, 58.06 1.44 M11.48 55.03 C27.58 36.59, 41.45 20.11, 58.06 1.44 M17.12 54.63 C28.94 42.18, 35.72 32.7, 63.04 1.8 M17.12 54.63 C27.27 42.66, 39.37 29.07, 63.04 1.8 M22.11 54.99 C37.64 37.82, 50.48 19.68, 68.69 1.41 M22.11 54.99 C30.9 44.19, 42.26 33.16, 68.69 1.41 M27.75 54.6 C42.59 37.26, 58.11 21.34, 73.67 1.77 M27.75 54.6 C41.42 38.51, 54.77 23.5, 73.67 1.77 M32.74 54.96 C50.19 34.45, 69.17 11, 79.32 1.37 M32.74 54.96 C48.31 36.98, 65.14 16.95, 79.32 1.37 M38.38 54.56 C50.13 37.91, 66.17 24.32, 84.3 1.73 M38.38 54.56 C51.24 38.55, 65.43 23.48, 84.3 1.73 M43.37 54.92 C57.27 40.65, 71.99 23.24, 89.29 2.09 M43.37 54.92 C54.27 41.49, 65.76 28.38, 89.29 2.09 M48.35 55.28 C63.28 40.93, 78.63 22.51, 94.93 1.7 M48.35 55.28 C63.96 37.29, 78.03 21.03, 94.93 1.7 M54 54.89 C70.9 36.15, 90.31 14.65, 99.92 2.06 M54 54.89 C64.39 41.79, 77.58 29.01, 99.92 2.06 M58.98 55.25 C72.68 40.51, 86.12 26.99, 105.56 1.66 M58.98 55.25 C75.3 35.17, 92.52 16.58, 105.56 1.66 M64.63 54.85 C82.21 36.4, 99.33 14.74, 110.55 2.02 M64.63 54.85 C77.41 39.23, 90.32 25.61, 110.55 2.02 M69.61 55.21 C87.14 33.69, 102.69 16.58, 116.19 1.63 M69.61 55.21 C83.87 41.48, 96.26 25.4, 116.19 1.63 M75.26 54.82 C89.15 39.49, 100.18 26.46, 121.18 1.99 M75.26 54.82 C91.67 35.86, 106.38 18.05, 121.18 1.99 M80.24 55.18 C96 40.63, 106.88 24.46, 126.82 1.59 M80.24 55.18 C98.57 34.38, 113.92 15.67, 126.82 1.59 M85.89 54.78 C104.26 36.97, 118.84 18.54, 131.81 1.96 M85.89 54.78 C95.64 42.67, 105.44 31.56, 131.81 1.96 M90.87 55.14 C101.22 43.4, 115.84 28.52, 137.45 1.56 M90.87 55.14 C103.72 40.36, 115.56 26.64, 137.45 1.56 M96.52 54.75 C114.15 34.83, 129.44 15.51, 142.44 1.92 M96.52 54.75 C112.73 36.8, 128.49 18.46, 142.44 1.92 M101.5 55.11 C117.62 37.1, 134.36 17.28, 148.08 1.53 M101.5 55.11 C110.74 42.77, 120.9 31.49, 148.08 1.53 M107.15 54.72 C125.17 35.78, 141.34 12.38, 153.07 1.89 M107.15 54.72 C123.87 37.88, 139.61 19.74, 153.07 1.89 M112.13 55.08 C129.48 34.48, 145.44 14.6, 158.71 1.49 M112.13 55.08 C129.5 34.04, 148.05 15.14, 158.71 1.49 M117.78 54.68 C132.83 36.24, 148.31 20.67, 163.7 1.85 M117.78 54.68 C131.73 38.75, 145.84 23.08, 163.7 1.85 M122.76 55.04 C133.14 42.92, 144.22 29.8, 169.34 1.46 M122.76 55.04 C138.95 36.54, 154.82 17.79, 169.34 1.46 M128.41 54.65 C144.39 34.61, 163.33 15.63, 174.33 1.82 M128.41 54.65 C142.3 38.14, 155.87 21.94, 174.33 1.82 M133.39 55.01 C150.6 35.38, 165.49 16.63, 179.97 1.42 M133.39 55.01 C144.44 40.96, 157.31 28.44, 179.97 1.42 M139.04 54.61 C153.17 38.48, 163.55 23.05, 184.96 1.78 M139.04 54.61 C152.83 38.45, 165.27 24.66, 184.96 1.78 M144.02 54.97 C163.47 33.37, 178.22 15.41, 189.95 2.14 M144.02 54.97 C154.47 43.79, 165.22 31.29, 189.95 2.14 M149.01 55.33 C157.64 46.01, 166.86 32.91, 195.59 1.75 M149.01 55.33 C165.48 35.29, 182.28 15.83, 195.59 1.75 M154.65 54.94 C172.57 35.33, 192.11 12.03, 200.58 2.11 M154.65 54.94 C169 37.55, 186.02 18.75, 200.58 2.11 M159.64 55.3 C179.53 34.92, 195.75 12.72, 206.22 1.71 M159.64 55.3 C174.74 37.1, 189.19 21.49, 206.22 1.71 M165.28 54.9 C178.7 39.36, 190.83 26.44, 211.21 2.07 M165.28 54.9 C176.63 39.88, 189.57 27.25, 211.21 2.07 M170.27 55.26 C183.27 38.59, 195.77 22.88, 216.85 1.68 M170.27 55.26 C185.53 38.43, 200.2 21.64, 216.85 1.68 M175.91 54.87 C186.2 43.21, 194.39 31.66, 221.84 2.04 M175.91 54.87 C186.82 44.04, 196.34 31.49, 221.84 2.04 M180.9 55.23 C190.57 44.42, 204.49 28.69, 227.48 1.64 M180.9 55.23 C199.45 33.5, 217.57 13.45, 227.48 1.64 M186.54 54.83 C202.2 35.42, 216.38 21.1, 232.47 2 M186.54 54.83 C198.34 41.66, 209.46 28.34, 232.47 2 M191.53 55.19 C208.28 32.7, 228.45 13.96, 238.11 1.61 M191.53 55.19 C206.91 36.89, 223.37 19.09, 238.11 1.61 M197.17 54.8 C208.2 39.01, 220.56 26.61, 243.1 1.97 M197.17 54.8 C210.99 38.59, 225.07 23.5, 243.1 1.97 M202.16 55.16 C210.63 42.77, 221.99 34.03, 248.74 1.58 M202.16 55.16 C214.24 41.04, 227.77 26.44, 248.74 1.58 M207.8 54.77 C220.44 36.3, 236.94 22.62, 253.73 1.94 M207.8 54.77 C224.09 36.22, 239.45 17.41, 253.73 1.94 M212.79 55.13 C227.02 38.03, 243.59 18.84, 259.37 1.54 M212.79 55.13 C222.84 45.08, 232.31 33.98, 259.37 1.54 M218.43 54.73 C233.47 37.93, 245.67 23.88, 264.36 1.9 M218.43 54.73 C232.04 37.55, 245.9 22.68, 264.36 1.9 M223.42 55.09 C236.59 36.48, 255.34 18.86, 270 1.51 M223.42 55.09 C237.78 39.66, 251.1 22.29, 270 1.51 M229.06 54.7 C245.17 37.45, 259.35 20.47, 274.99 1.87 M229.06 54.7 C242.97 37.6, 257.24 22.65, 274.99 1.87 M234.05 55.06 C248.98 35.1, 266.81 18.26, 280.63 1.47 M234.05 55.06 C245.46 42.61, 257.24 28.48, 280.63 1.47 M239.69 54.66 C248.96 41.84, 259.13 29.28, 285.62 1.83 M239.69 54.66 C258.08 34.71, 275.33 14.53, 285.62 1.83 M244.68 55.02 C256.38 41.9, 265.08 27.43, 290.61 2.19 M244.68 55.02 C255.55 41.88, 264.46 31.09, 290.61 2.19 M249.67 55.38 C266.26 36.77, 280.74 19.55, 296.25 1.8 M249.67 55.38 C260.99 42.61, 270.81 31.11, 296.25 1.8 M255.31 54.99 C267.78 38.98, 282.18 23.81, 301.24 2.16 M255.31 54.99 C272.03 34.93, 289.44 13.68, 301.24 2.16 M260.3 55.35 C272.97 41.35, 284.24 29.27, 306.88 1.76 M260.3 55.35 C272.04 41.54, 283.31 30.52, 306.88 1.76 M265.94 54.95 C275.15 44.55, 286.55 31.08, 311.87 2.12 M265.94 54.95 C281.42 36.71, 296.26 20.16, 311.87 2.12 M270.93 55.31 C286.58 39.57, 299.73 23.62, 317.51 1.73 M270.93 55.31 C281.64 43.66, 291.99 31.26, 317.51 1.73 M276.57 54.92 C286.69 43.48, 298.53 29.1, 322.5 2.09 M276.57 54.92 C288.13 39.4, 302.86 25.69, 322.5 2.09 M281.56 55.28 C296.97 40.18, 308.95 21.12, 328.14 1.69 M281.56 55.28 C297.41 36.77, 313.53 18.9, 328.14 1.69 M287.2 54.88 C303.87 33.6, 324.19 14.9, 333.13 2.05 M287.2 54.88 C300.96 38.88, 315.3 22.3, 333.13 2.05 M292.19 55.24 C304.48 41.58, 316.23 28.79, 338.77 1.66 M292.19 55.24 C309.77 34.79, 325.39 15.85, 338.77 1.66 M297.83 54.85 C311.19 36.08, 327.32 20.88, 343.76 2.02 M297.83 54.85 C308.54 42.71, 318.53 30.18, 343.76 2.02 M302.82 55.21 C316.45 38.5, 329.55 23.51, 349.4 1.63 M302.82 55.21 C319.96 37.46, 336.38 17.5, 349.4 1.63 M308.46 54.82 C320.04 40.43, 330.7 28.31, 354.39 1.99 M308.46 54.82 C326.48 35.35, 341.74 15.9, 354.39 1.99 M313.45 55.18 C329.92 35.55, 348.05 12.36, 360.03 1.59 M313.45 55.18 C326.25 41.18, 337.64 27.84, 360.03 1.59 M319.09 54.78 C331.25 39.28, 347.55 24.47, 365.02 1.95 M319.09 54.78 C328.79 41.88, 340.06 30.83, 365.02 1.95 M324.08 55.14 C342.58 35.38, 357.6 15.39, 370.66 1.56 M324.08 55.14 C337.72 38.13, 353.68 21.82, 370.66 1.56 M329.72 54.75 C346.76 34.97, 359.53 17.13, 375.65 1.92 M329.72 54.75 C345.93 35.51, 363.84 16.26, 375.65 1.92 M334.71 55.11 C352.67 35.29, 370.01 11.51, 381.29 1.52 M334.71 55.11 C352.13 36.51, 367.65 17.11, 381.29 1.52 M340.35 54.71 C350.97 39.69, 363.83 26.83, 386.28 1.88 M340.35 54.71 C353.53 38.33, 369.01 21.07, 386.28 1.88 M345.34 55.07 C356.37 42.68, 371.41 27.74, 390.61 3 M345.34 55.07 C363.27 33.17, 381.46 12.47, 390.61 3 M350.33 55.43 C360.53 44.42, 371.9 32.91, 392.97 6.38 M350.33 55.43 C362.8 42, 374.52 27.75, 392.97 6.38 M355.97 55.04 C368.5 38.15, 384.24 23.01, 395.33 9.75 M355.97 55.04 C364.36 43.5, 374.09 32.79, 395.33 9.75 M360.96 55.4 C368.66 45.42, 380.04 33.05, 395.73 15.4 M360.96 55.4 C370.56 44.4, 378.85 34.53, 395.73 15.4 M366.6 55 C374.46 49.16, 379.14 38.2, 395.47 21.8 M366.6 55 C372.68 48.36, 378.5 40.8, 395.47 21.8 M371.59 55.36 C380.36 44.58, 388.54 33.83, 395.86 27.44 M371.59 55.36 C378.68 47.07, 385.9 38.48, 395.86 27.44 M377.23 54.97 C384.26 49.44, 389.75 41.61, 395.6 33.84 M377.23 54.97 C381.59 49.66, 386.7 44.1, 395.6 33.84 M382.22 55.33 C386.91 52.3, 388.23 47.43, 395.99 39.48 M382.22 55.33 C386.31 50.59, 388.83 46.59, 395.99 39.48" stroke="#868e96" stroke-width="0.5" fill="none"></path><path d="M13.5 0 M13.5 0 C96.02 -0.41, 176.61 -0.62, 380.5 0 M13.5 0 C122.78 1.95, 230.94 2.46, 380.5 0 M380.5 0 C390.36 -1.29, 394.31 3.09, 394 13.5 M380.5 0 C390.74 -0.05, 392.86 6.28, 394 13.5 M394 13.5 C395.78 24.87, 394.07 34.84, 394 40.5 M394 13.5 C394.89 19.94, 394.28 25.88, 394 40.5 M394 40.5 C393.93 51.15, 388.09 52.7, 380.5 54 M394 40.5 C393.93 49.23, 390.74 53.34, 380.5 54 M380.5 54 C298.48 53.01, 216.99 54.2, 13.5 54 M380.5 54 C241.88 55.91, 104.36 55.86, 13.5 54 M13.5 54 C4.72 54.7, 1.58 49.03, 0 40.5 M13.5 54 C5.84 56.03, -0.25 47.64, 0 40.5 M0 40.5 C-1.5 35.74, 1.25 26.79, 0 13.5 M0 40.5 C-0.15 30.35, 0.13 20.93, 0 13.5 M0 13.5 C1.79 3.04, 5.81 -1.88, 13.5 0 M0 13.5 C1.81 6.29, 3.97 -1.42, 13.5 0" stroke="#000000" stroke-width="1" fill="none"></path></g><g transform="translate(188 396.5) rotate(0 33 12.5)"><text x="33" y="18" font-family="Virgil, Segoe UI Emoji" font-size="20px" fill="#000000" text-anchor="middle" style="white-space: pre;" direction="ltr">Footer</text></g><g transform="translate(177 41) rotate(0 35.5 12.5)"><text x="0" y="18" font-family="Virgil, Segoe UI Emoji" font-size="20px" fill="#000000" text-anchor="start" style="white-space: pre;" direction="ltr">Navbar</text></g><g transform="translate(178 214) rotate(0 37.5 12.5)"><text x="0" y="18" font-family="Virgil, Segoe UI Emoji" font-size="20px" fill="#000000" text-anchor="start" style="white-space: pre;" direction="ltr">Tabset</text></g></svg>