<?xml version="1.0" encoding="UTF-8" standalone="no"?><svg xmlns="http://www.w3.org/2000/svg" xmlns:xlink="http://www.w3.org/1999/xlink" contentStyleType="text/css" height="662px" preserveAspectRatio="none" style="width:479px;height:662px;background:#FFFFFF;" version="1.1" viewBox="0 0 479 662" width="479px" zoomAndPan="magnify"><defs/><g><!--MD5=[6326b81c113285a9d7424a8f38b27174]
cluster Usecases--><g id="cluster_Usecases"><rect height="557" rx="2.5" ry="2.5" style="stroke:#181818;stroke-width:1.0;fill:none;" width="247" x="226" y="99.5"/><text fill="#000000" font-family="sans-serif" font-size="14" font-weight="bold" lengthAdjust="spacing" textLength="68" x="315.5" y="116.0332">Usecases</text></g><g id="elem_Upload Data"><ellipse cx="349.2537" cy="228.2507" fill="#F1F1F1" rx="66.7537" ry="15.7507" style="stroke:#181818;stroke-width:0.5;"/><text fill="#000000" font-family="sans-serif" font-size="14" lengthAdjust="spacing" textLength="78" x="307.2537" y="232.7673">Upload Data</text></g><g id="elem_Generate Predictions"><ellipse cx="349.7471" cy="461.5494" fill="#F1F1F1" rx="88.2471" ry="20.0494" style="stroke:#181818;stroke-width:0.5;"/><text fill="#000000" font-family="sans-serif" font-size="14" lengthAdjust="spacing" textLength="134" x="282.7471" y="465.2779">Generate Predictions</text></g><g id="elem_Explain/Visualize Datasets"><ellipse cx="349.3975" cy="539.6795" fill="#F1F1F1" rx="101.3975" ry="22.6795" style="stroke:#181818;stroke-width:0.5;"/><text fill="#000000" font-family="sans-serif" font-size="14" lengthAdjust="spacing" textLength="164" x="267.3975" y="543.408">Explain/Visualize Datasets</text></g><g id="elem_Explain/Visualize Models"><ellipse cx="349.511" cy="618.7022" fill="#F1F1F1" rx="96.511" ry="21.7022" style="stroke:#181818;stroke-width:0.5;"/><text fill="#000000" font-family="sans-serif" font-size="14" lengthAdjust="spacing" textLength="153" x="273.011" y="622.4307">Explain/Visualize Models</text></g><g id="elem_Explain/Visualize Predictions"><ellipse cx="349.7046" cy="382.4409" fill="#F1F1F1" rx="107.7046" ry="23.9409" style="stroke:#181818;stroke-width:0.5;"/><text fill="#000000" font-family="sans-serif" font-size="14" lengthAdjust="spacing" textLength="178" x="260.7046" y="386.1694">Explain/Visualize Predictions</text></g><g id="elem_Configure User Settings"><ellipse cx="349.6904" cy="301.4381" fill="#F1F1F1" rx="95.1904" ry="21.4381" style="stroke:#181818;stroke-width:0.5;"/><text fill="#000000" font-family="sans-serif" font-size="14" lengthAdjust="spacing" textLength="150" x="274.6904" y="305.1666">Configure User Settings</text></g><g id="elem_Configure App Settings"><ellipse cx="349.4382" cy="156.5876" fill="#F1F1F1" rx="93.4382" ry="21.0876" style="stroke:#181818;stroke-width:0.5;"/><text fill="#000000" font-family="sans-serif" font-size="14" lengthAdjust="spacing" textLength="146" x="276.4382" y="160.3162">Configure App Settings</text></g><!--MD5=[fee662a292a0353a69bd162820bae93b]
entity User--><g id="elem_User"><ellipse cx="20.5" cy="431" fill="#F1F1F1" rx="8" ry="8" style="stroke:#181818;stroke-width:0.5;"/><path d="M20.5,439 L20.5,466 M7.5,447 L33.5,447 M20.5,466 L7.5,481 M20.5,466 L33.5,481 " fill="none" style="stroke:#181818;stroke-width:0.5;"/><text fill="#000000" font-family="sans-serif" font-size="14" lengthAdjust="spacing" textLength="29" x="6" y="497.0332">User</text></g><!--MD5=[5f7a6453e063dcbe3e3a052128b27dad]
entity Authenticated--><g id="elem_Authenticated"><ellipse cx="138.5" cy="231" fill="#F1F1F1" rx="8" ry="8" style="stroke:#181818;stroke-width:0.5;"/><path d="M138.5,239 L138.5,266 M125.5,247 L151.5,247 M138.5,266 L125.5,281 M138.5,266 L151.5,281 " fill="none" style="stroke:#181818;stroke-width:0.5;"/><text fill="#000000" font-family="sans-serif" font-size="14" lengthAdjust="spacing" textLength="87" x="95" y="297.0332">Authenticated</text></g><!--MD5=[97ab183161fd5d1db7fba7485cf76add]
entity Admin--><g id="elem_Admin"><ellipse cx="349.5" cy="14" fill="#F1F1F1" rx="8" ry="8" style="stroke:#181818;stroke-width:0.5;"/><path d="M349.5,22 L349.5,49 M336.5,30 L362.5,30 M349.5,49 L336.5,64 M349.5,49 L362.5,64 " fill="none" style="stroke:#181818;stroke-width:0.5;"/><text fill="#000000" font-family="sans-serif" font-size="14" lengthAdjust="spacing" textLength="39" x="330" y="80.0332">Admin</text></g><!--MD5=[eba9b021dd8e59870e73e52e08087bec]
reverse link User to Authenticated--><g id="link_User_Authenticated"><path d="M37.64,433.67 C57.68,399.12 91.97,340 114.69,300.83 " fill="none" id="User-backto-Authenticated" style="stroke:#181818;stroke-width:1.0;"/><polygon fill="#181818" points="35.03,438.17,43.0093,432.3967,37.5414,433.8465,36.0916,428.3785,35.03,438.17" style="stroke:#181818;stroke-width:1.0;"/></g><!--MD5=[f8b34e49e3a6669eaf345abe92346717]
reverse link Authenticated to Admin--><g id="link_Authenticated_Admin"><path d="M156.35,217.47 C169.6,187.18 190.44,147.52 218,119.5 C250.98,85.97 302.1,62.51 329.54,51.54 " fill="none" id="Authenticated-backto-Admin" style="stroke:#181818;stroke-width:1.0;"/><polygon fill="#181818" points="154.28,222.25,161.5269,215.5805,156.2668,217.6617,154.1857,212.4016,154.28,222.25" style="stroke:#181818;stroke-width:1.0;"/></g><!--MD5=[6df97b9eb80d0b5aa5524a877f556779]
link Explain/Visualize Predictions to Generate Predictions--><g id="link_Explain/Visualize Predictions_Generate Predictions"><path d="M349.5,406.91 C349.5,416.71 349.5,426.51 349.5,436.31 " fill="none" id="Explain/Visualize Predictions-to-Generate Predictions" style="stroke:#181818;stroke-width:1.0;stroke-dasharray:7.0,7.0;"/><polygon fill="#181818" points="349.5,441.44,353.5,432.44,349.5,436.44,345.5,432.44,349.5,441.44" style="stroke:#181818;stroke-width:1.0;"/></g><!--MD5=[d7c826f17a5452b1346da3155069f0c9]
link User to Generate Predictions--><g id="link_User_Generate Predictions"><path d="M35.13,461.5 C72.27,461.5 177.69,461.5 256.06,461.5 " fill="none" id="User-to-Generate Predictions" style="stroke:#181818;stroke-width:1.0;"/><polygon fill="#181818" points="261.18,461.5,252.18,457.5,256.18,461.5,252.18,465.5,261.18,461.5" style="stroke:#181818;stroke-width:1.0;"/></g><!--MD5=[64bd05f1374cb6c15c64dd2fa83dc9e5]
link User to Explain/Visualize Datasets--><g id="link_User_Explain/Visualize Datasets"><path d="M35.13,464.75 C75.29,474.33 195.26,502.95 274.57,521.86 " fill="none" id="User-to-Explain/Visualize Datasets" style="stroke:#181818;stroke-width:1.0;"/><polygon fill="#181818" points="279.73,523.1,271.8981,517.1283,274.8654,521.9445,270.0492,524.9118,279.73,523.1" style="stroke:#181818;stroke-width:1.0;"/></g><!--MD5=[d36af482a7ebe6c9d44c4e78d67bf518]
link User to Explain/Visualize Models--><g id="link_User_Explain/Visualize Models"><path d="M35.01,469.85 C49.73,478.93 73.99,493.83 95,506.5 C149.44,539.32 159.78,553.99 218,579.5 C237.35,587.98 259.09,595.29 279.19,601.21 " fill="none" id="User-to-Explain/Visualize Models" style="stroke:#181818;stroke-width:1.0;"/><polygon fill="#181818" points="283.99,602.61,276.4649,596.256,279.1889,601.2138,274.2311,603.9378,283.99,602.61" style="stroke:#181818;stroke-width:1.0;"/></g><!--MD5=[84c0b3feed7a68bd0578a9059b2a5e44]
link User to Explain/Visualize Predictions--><g id="link_User_Explain/Visualize Predictions"><path d="M35.14,456.05 C49.77,450.36 73.75,441.45 95,435.5 C148.89,420.41 210.31,407.46 259.19,398.14 " fill="none" id="User-to-Explain/Visualize Predictions" style="stroke:#181818;stroke-width:1.0;"/><polygon fill="#181818" points="264.18,397.2,254.5875,394.9675,259.2696,398.1421,256.0949,402.8242,264.18,397.2" style="stroke:#181818;stroke-width:1.0;"/></g><!--MD5=[a70d5bcda54108e72e3f568f3c09f615]
link Authenticated to Upload Data--><g id="link_Authenticated_Upload Data"><path d="M182.05,254.78 C212.65,249.95 254.34,243.37 288.34,238 " fill="none" id="Authenticated-to-Upload Data" style="stroke:#181818;stroke-width:1.0;"/><polygon fill="#181818" points="293.3,237.22,283.7825,234.6868,288.3624,238.0072,285.042,242.587,293.3,237.22" style="stroke:#181818;stroke-width:1.0;"/></g><!--MD5=[e99ea96f29e2af871355f3c883f51508]
link Authenticated to Configure User Settings--><g id="link_Authenticated_Configure User Settings"><path d="M182.05,269.64 C207.66,274.54 241.04,280.93 271.18,286.7 " fill="none" id="Authenticated-to-Configure User Settings" style="stroke:#181818;stroke-width:1.0;"/><polygon fill="#181818" points="276.38,287.7,268.2792,282.0985,271.4669,286.7717,266.7938,289.9594,276.38,287.7" style="stroke:#181818;stroke-width:1.0;"/></g><!--MD5=[9df4079c8a2deaad71212f5c9c9ca3e6]
link Admin to Configure App Settings--><g id="link_Admin_Configure App Settings"><path d="M349.5,83.77 C349.5,99.13 349.5,114.49 349.5,129.85 " fill="none" id="Admin-to-Configure App Settings" style="stroke:#181818;stroke-width:1.0;"/><polygon fill="#181818" points="349.5,135.06,353.5,126.06,349.5,130.06,345.5,126.06,349.5,135.06" style="stroke:#181818;stroke-width:1.0;"/></g><!--MD5=[a16fe1e15580fac68e1f078dba851ae6]
@startuml usecases
left to right direction
' Actors
:User:
:Authenticated:
:Admin:
Authenticated -up-> User
Admin -up-> Authenticated
' Usecases
rectangle Usecases {
    (Upload Data)
    (Generate Predictions)
    (Explain/Visualize Datasets)
    (Explain/Visualize Models)
    (Explain/Visualize Predictions)
    (Configure User Settings)
    (Configure App Settings)
    (Explain/Visualize Predictions) .> (Generate Predictions)
}
' Relationships
User -> (Generate Predictions)
User -> (Explain/Visualize Datasets)
User -> (Explain/Visualize Models)
User -> (Explain/Visualize Predictions)
Authenticated -> (Upload Data)
Authenticated -> (Configure User Settings)
Admin -> (Configure App Settings)
@enduml

@startuml usecases
left to right direction
:User:
:Authenticated:
:Admin:
Authenticated -up-> User
Admin -up-> Authenticated
rectangle Usecases {
    (Upload Data)
    (Generate Predictions)
    (Explain/Visualize Datasets)
    (Explain/Visualize Models)
    (Explain/Visualize Predictions)
    (Configure User Settings)
    (Configure App Settings)
    (Explain/Visualize Predictions) .> (Generate Predictions)
}
User -> (Generate Predictions)
User -> (Explain/Visualize Datasets)
User -> (Explain/Visualize Models)
User -> (Explain/Visualize Predictions)
Authenticated -> (Upload Data)
Authenticated -> (Configure User Settings)
Admin -> (Configure App Settings)
@enduml

PlantUML version 1.2022.5(Sat Apr 30 12:55:52 CEST 2022)
(GPL source distribution)
Java Runtime: OpenJDK Runtime Environment
JVM: OpenJDK 64-Bit Server VM
Default Encoding: Cp1252
Language: en
Country: US
--></g></svg>